<svg xmlns="http://www.w3.org/2000/svg" width="24" height="24" viewBox="0 0 24 24">
  <defs>
    <style>
      .cls-1 {
        fill: #333;
        fill-rule: evenodd;
      }
    </style>
  </defs>
  <path id="account" class="cls-1" d="M1507,115a12,12,0,1,1,2.2-.2l-0.13.023q-0.51.09-.99,0.132C1507.72,114.982,1507.36,115,1507,115Zm-0.92-1.5,0.01,0c0.29,0.024.6,0.036,0.91,0.036s0.6-.013.91-0.039h0.04c0.28-.026.57-0.065,0.86-0.115l0.03,0a0.123,0.123,0,0,1,.02,0c0.27-.048.55-0.111,0.84-0.186l0.06-.017c0.26-.07.53-0.154,0.8-0.252,0.02,0,.03-0.011.05-0.016l0.03-.011c0.25-.093.51-0.2,0.76-0.318l0.01,0c0.03-.011.05-0.022,0.08-0.034,0.23-.107.47-0.231,0.73-0.378,0.01-.009.03-0.018,0.04-0.026a0.138,0.138,0,0,0,.04-0.025c0.24-.137.47-0.284,0.69-0.438,0.02-.01.03-0.02,0.05-0.03s0.03-.021.04-0.032c0.2-.137.39-0.286,0.58-0.439v-3.117a3.947,3.947,0,0,0-3.94-3.936h-5.44a3.953,3.953,0,0,0-3.94,3.936v3.119c0.2,0.155.39,0.3,0.58,0.436a0.251,0.251,0,0,0,.05.035,0.215,0.215,0,0,0,.05.035c0.22,0.156.45,0.3,0.67,0.43l0.1,0.057c0.27,0.15.5,0.272,0.72,0.373a0.412,0.412,0,0,0,.06.029l0.03,0.012c0.26,0.121.52,0.227,0.76,0.317a0.177,0.177,0,0,1,.04.014c0.02,0,.03.009,0.05,0.013,0.26,0.1.53,0.183,0.79,0.253l0.07,0.017q0.42,0.112.84,0.186c0.01,0,.01,0,0.01,0l0.04,0c0.29,0.05.57,0.089,0.85,0.114h0.03Zm3.64-10.841a5.417,5.417,0,0,1,5.4,5.392v1.673a10.546,10.546,0,1,0-16.23,0v-1.672a5.4,5.4,0,0,1,5.39-5.393h5.44Zm-2.72-.486a4.227,4.227,0,1,1,4.23-4.228A4.235,4.235,0,0,1,1507,102.173Zm0-7a2.77,2.77,0,1,0,2.77,2.768A2.771,2.771,0,0,0,1507,95.177Z" transform="translate(-1495 -91)"/>
</svg>
